/* XPM */
static char * coins_2_xpm[] = {
"32 32 114 2",
"  	c #509B66",
". 	c #21110D",
"+ 	c #64656B",
"@ 	c #686A70",
"# 	c #686A6F",
"$ 	c #605F62",
"% 	c #504440",
"& 	c #442D1D",
"* 	c #626469",
"= 	c #8F959D",
"- 	c #9FA6AF",
"; 	c #93949A",
"> 	c #796B66",
", 	c #674830",
"' 	c #66462D",
") 	c #422C1D",
"! 	c #666162",
"~ 	c #8E9299",
"{ 	c #A0A7B0",
"] 	c #94959A",
"^ 	c #432B18",
"/ 	c #5D412B",
"( 	c #675247",
"_ 	c #696363",
": 	c #1F0F0C",
"< 	c #1A0100",
"[ 	c #170000",
"} 	c #1B0500",
"| 	c #1E0C07",
"1 	c #67482F",
"2 	c #60432D",
"3 	c #6C5549",
"4 	c #67696E",
"5 	c #4F4440",
"6 	c #442C19",
"7 	c #351F10",
"8 	c #513725",
"9 	c #726765",
"0 	c #2D1607",
"a 	c #6C676A",
"b 	c #959AA6",
"c 	c #A7AFBE",
"d 	c #9A9CA7",
"e 	c #7F716F",
"f 	c #6E5242",
"g 	c #705853",
"h 	c #6F5956",
"i 	c #6A5045",
"j 	c #674B39",
"k 	c #281407",
"l 	c #362419",
"m 	c #56535D",
"n 	c #767D93",
"o 	c #838FA8",
"p 	c #7A7F93",
"q 	c #685C61",
"r 	c #614F51",
"s 	c #676376",
"t 	c #636379",
"u 	c #524C59",
"v 	c #45383B",
"w 	c #261408",
"x 	c #301F16",
"y 	c #464554",
"z 	c #5D6785",
"A 	c #677599",
"B 	c #626986",
"C 	c #574D57",
"D 	c #574D58",
"E 	c #5B6888",
"F 	c #3F4861",
"G 	c #23283B",
"H 	c #2F1F16",
"I 	c #606784",
"J 	c #5B6887",
"K 	c #3E4760",
"L 	c #212739",
"M 	c #180F14",
"N 	c #1F110F",
"O 	c #0C0E19",
"P 	c #160F15",
"Q 	c #5F6C8D",
"R 	c #4C5774",
"S 	c #647294",
"T 	c #55484E",
"U 	c #5D5E75",
"V 	c #523D37",
"W 	c #55474C",
"X 	c #1C1011",
"Y 	c #231208",
"Z 	c #444354",
"` 	c #687699",
" .	c #503521",
"..	c #1B0C08",
"+.	c #241612",
"@.	c #3F4153",
"#.	c #5B6685",
"$.	c #50341E",
"%.	c #11080D",
"&.	c #383B4C",
"*.	c #545E7B",
"=.	c #606D8E",
"-.	c #5B617C",
";.	c #504751",
">.	c #4A3223",
",.	c #0E0C15",
"'.	c #282A39",
").	c #3C445A",
"!.	c #444E67",
"~.	c #41465B",
"{.	c #39333C",
"].	c #35241F",
"^.	c #35231D",
"/.	c #03020B",
"                                                                ",
"                                                                ",
"                                                                ",
"                                                                ",
"            . . . . . . . . . . . . . . . . . . . .             ",
"            + @ # $ % & & & & & & & & & & % $ # @ +             ",
"        . * = - - ; > , ' , , , , , , ' , > ; - - = * .         ",
"        ) ! ~ { { ] > , ' , , , , , , ' , > ] { { ~ ! )         ",
"    . ^ / ( _ @ @ $ % & & & & & & & & & & % $ @ @ _ ( / ^ .     ",
"    . & , , & . : . . . . . . . . . . . . . . : . & , , & .     ",
"    . & , , ^ < [ } | : : : : : : : : : : | } [ < ^ , , & .     ",
"    . & , 1 ^ < [ } | : : : : : : : : : : | } [ < ^ 1 , & .     ",
"    . & , , & . : . . . . . . . . . . . . . . : . & , , & .     ",
"    . ^ 2 3 _ # 4 $ 5 & 6 6 & & & & 6 6 & 5 $ 4 # _ 3 2 ^ .     ",
"    . 7 8 9 ; { { ] > , ' , , , , , , ' , > ] { { ; 9 8 7 .     ",
"    . 0 ) a b c c d e f g h i j j i h g f e d c c b a ) 0 .     ",
"    . k l m n o o p q r s t u v v u t s r q p o o n m l k .     ",
"    . w x y z A A B C D B E F G G F E B D C B A A z y x w .     ",
"    . w H y z A A I C D B E F G G F E B D C I A A z y H w .     ",
"    . w x y z A A B C D B J K L L K J B D C B A A z y x w .     ",
"  M N w x y z A A B C D B E F G G F E B D C B A A z y x w N M   ",
"O P N w x y z A A B C D B Q R K K R Q B D C B A A z y x w N P O ",
"O P N w x y z A A B C C B S Q J J Q S B C C B A A z y x w N P O ",
"O P N w x y z A A B C T U B B B B B B U T C B A A z y x w N P O ",
"O P N w x y z A A B C V W C D D D D C W V C B A A z y x w N P O ",
"O P X Y H Z z A ` B C 8  .8 8 8 8 8 8  .8 C B ` A z Z H Y X P O ",
"O O P ..+.@.#.A A B C 8 $. . . . . . .$.8 C B A A #.@.+...P O O ",
"      %.X &.*.=.=.-.;.>.>.>.>.>.>.>.>.>.>.;.-.=.=.*.&.X %.      ",
"      ,.P '.).!.!.~.{.].^.].].].].].].^.].{.~.!.!.).'.P ,.      ",
"              O O O O O O O O O O O O O O O O O O               ",
"                /.                            /.                ",
"              O O O O O O O O O O O O O O O O O O               "};
