/* XPM */
static char * coins_1_xpm[] = {
"32 32 134 2",
"  	c #509B66",
". 	c #21110D",
"+ 	c #301D15",
"@ 	c #34292E",
"# 	c #383747",
"$ 	c #3B3D51",
"% 	c #311C0F",
"& 	c #412B1D",
"* 	c #4D434B",
"= 	c #565B74",
"- 	c #5B6685",
"; 	c #472F20",
"> 	c #472E1D",
", 	c #372111",
"' 	c #513725",
") 	c #675C60",
"! 	c #797E92",
"~ 	c #828DA7",
"{ 	c #5B3F2B",
"] 	c #5B3E27",
"^ 	c #3E2614",
"/ 	c #60432D",
"( 	c #7F716F",
"_ 	c #9A9DA7",
": 	c #A7B0BE",
"< 	c #6D4D34",
"[ 	c #6C4B31",
"} 	c #422915",
"| 	c #674830",
"1 	c #8A7B76",
"2 	c #A8AAB1",
"3 	c #B7BFC9",
"4 	c #755338",
"5 	c #745134",
"6 	c #3E2612",
"7 	c #5F422B",
"8 	c #A6AFBE",
"9 	c #6B492B",
"0 	c #6B4A2F",
"a 	c #4D434D",
"b 	c #5C5A6E",
"c 	c #646D8C",
"d 	c #677699",
"e 	c #636C8B",
"f 	c #615960",
"g 	c #70696B",
"h 	c #777172",
"i 	c #787273",
"j 	c #3A3947",
"k 	c #647294",
"l 	c #647093",
"m 	c #747D93",
"n 	c #959AA6",
"o 	c #A3A8B0",
"p 	c #525973",
"q 	c #5D6887",
"r 	c #5D698A",
"s 	c #5F6C8D",
"t 	c #939BAA",
"u 	c #A1A9B4",
"v 	c #A0A7B1",
"w 	c #2E262D",
"x 	c #3F3C4A",
"y 	c #484B5F",
"z 	c #4C546F",
"A 	c #4D5976",
"B 	c #4B536E",
"C 	c #545767",
"D 	c #686E7F",
"E 	c #6F7686",
"F 	c #6B717E",
"G 	c #686E79",
"H 	c #26150C",
"I 	c #3C3742",
"J 	c #494F67",
"K 	c #413A43",
"L 	c #423A44",
"M 	c #454F6A",
"N 	c #323A50",
"O 	c #22273A",
"P 	c #180F14",
"Q 	c #1F110F",
"R 	c #261307",
"S 	c #2F1D12",
"T 	c #423F4D",
"U 	c #565F7B",
"V 	c #59607B",
"W 	c #4F464F",
"X 	c #504650",
"Y 	c #585F7A",
"Z 	c #525E7D",
"` 	c #37415A",
" .	c #1C2337",
"..	c #0F0E18",
"+.	c #160F15",
"@.	c #261408",
"#.	c #464554",
"$.	c #5D6785",
"%.	c #626986",
"&.	c #574D57",
"*.	c #574D58",
"=.	c #4C5774",
"-.	c #3E4760",
";.	c #687699",
">.	c #5B6887",
",.	c #55484E",
"'.	c #5D5E75",
").	c #2C1C15",
"!.	c #523D37",
"~.	c #55474C",
"{.	c #1C1011",
"].	c #231208",
"^.	c #444354",
"/.	c #503521",
"(.	c #0B0E19",
"_.	c #1B0C08",
":.	c #241612",
"<.	c #3F4153",
"[.	c #4A3223",
"}.	c #50341E",
"|.	c #11080D",
"1.	c #383B4C",
"2.	c #606D8E",
"3.	c #5B617C",
"4.	c #504751",
"5.	c #0E0C15",
"6.	c #282A39",
"7.	c #3C445A",
"8.	c #444E67",
"9.	c #41465B",
"0.	c #39333C",
"a.	c #35241F",
"b.	c #35231D",
"c.	c #03020B",
"                                                                ",
"                                                                ",
"        . . . . . . . . . . . . . . . . . . . . . . . .         ",
"        + @ # $ $ # @ + + + + + + + + + + @ # $ $ # @ +         ",
"    . % & * = - - = * ; > ; ; ; ; ; ; > ; * = - - = * & % .     ",
"    . , ' ) ! ~ ~ ! ) { ] { { { { { { ] { ) ! ~ ~ ! ) ' , .     ",
"    . ^ / ( _ : : _ ( < [ < < < < < < [ < ( _ : : _ ( / ^ .     ",
"    . } | 1 2 3 3 2 1 4 5 4 4 4 4 4 4 5 4 1 2 3 3 2 1 | } .     ",
"    . } | 1 2 3 3 2 1 4 5 4 4 4 4 4 4 5 4 1 2 3 3 2 1 | } .     ",
"    . } | 1 2 3 3 2 1 4 5 4 4 4 4 4 4 5 4 1 2 3 3 2 1 | } .     ",
"    . } | 1 2 3 3 2 1 4 5 4 4 4 4 4 4 5 4 1 2 3 3 2 1 | } .     ",
"    . } | 1 2 3 3 2 1 4 5 4 4 4 4 4 4 5 4 1 2 3 3 2 1 | } .     ",
"    . } | 1 2 3 3 2 1 4 5 4 4 4 4 4 4 5 4 1 2 3 3 2 1 | } .     ",
"    . 6 7 ( _ 8 8 _ ( [ 9 0 0 0 0 0 0 9 [ ( _ 8 8 _ ( 7 6 .     ",
"    . , ' ) ! ~ ~ ! ) { ] { { { { { { ] { ) ! ~ ~ ! ) ' , .     ",
"    . @ a b c d d e b f g h i h h i h g f b e d d c b a @ .     ",
"    . j = e k d d l e m n o o o o o o n m e l d d k e = j .     ",
"    . j p q r s s r q m t u o v v o u t m q r s s r q p j .     ",
"    . w x y z A A B y C D E F G G F E D C y B A A z y x w .     ",
"    . H + I J A A J K L J M N O O N M J L K J A A J I + H .     ",
"  P Q R S T U s s V W X Y Z `  . .` Z Y X W V s s U T S R Q P   ",
"..+.Q @.+ #.$.d d %.&.*.%.s =.-.-.=.s %.*.&.%.d d $.#.+ @.Q +.  ",
"..+.Q @.+ #.$.;.;.%.&.*.%.k s >.>.s k %.*.&.%.;.;.$.#.+ @.Q +.  ",
"..+.Q @.+ #.$.d d %.&.,.'.%.%.%.%.%.%.'.,.&.%.d d $.#.+ @.Q +.  ",
"..+.Q @.).#.$.d d %.&.!.~.&.*.*.*.*.&.~.!.&.%.d d $.#.+ @.Q +.  ",
"..+.{.].).^.$.d ;.%.&.' /.' ' ' ' ' ' /.' &.%.d d $.^.).].{.+.(.",
"....+._.:.<.- d d %.&.[.}././././././.}.' &.%.d d - <.:._.+.....",
"      |.{.1.U 2.2.3.4.[.[.[.[.[.[.[.[.[.[.X 3.s 2.U 1.{.|.      ",
"      5.+.6.7.8.8.9.0.a.b.a.a.a.a.a.a.b.a.0.9.8.8.7.6.+.5.      ",
"              ......(.(.(...(.................(...              ",
"                c.                            c.                ",
"              ..............(.(...................              "};
