/* XPM */
static char * exit_open_xpm[] = {
"32 32 56 1",
" 	c #677598",
".	c #5B6685",
"+	c #3D3F52",
"@	c #21110D",
"#	c #1F0C03",
"$	c #565B74",
"%	c #4B424B",
"&	c #442E1E",
"*	c #442C1B",
"=	c #442D1E",
"-	c #402A1C",
";	c #442F20",
">	c #5E463C",
",	c #674931",
"'	c #674831",
")	c #674830",
"!	c #755338",
"~	c #765338",
"{	c #65472F",
"]	c #60432D",
"^	c #6C4C33",
"/	c #6A4B33",
"(	c #382418",
"_	c #513725",
":	c #593E29",
"<	c #513826",
"[	c #493122",
"}	c #4C3424",
"|	c #4D3524",
"1	c #553A28",
"2	c #432D1F",
"3	c #3A271B",
"4	c #3B281C",
"5	c #342319",
"6	c #332219",
"7	c #61442E",
"8	c #509B66",
"9	c #3D291D",
"0	c #503625",
"a	c #452E1F",
"b	c #473021",
"c	c #694A32",
"d	c #3D281B",
"e	c #583D29",
"f	c #342217",
"g	c #2A1A11",
"h	c #37251A",
"i	c #362416",
"j	c #24160D",
"k	c #1D110A",
"l	c #2B1A11",
"m	c #1B0D0A",
"n	c #180B08",
"o	c #0C0403",
"p	c #000000",
"q	c #0D0503",
" .+@#@@@@@@@@@@@@@@@@@@@@@@#@+. ",
".$%&*&==&-&&===;====;;=====-=%$.",
"+%>,''''''''))))'))))))))'''''%+",
"@&,!~!!!!!!~!!!!!!!!!!!!~~~!!)&@",
"#*)!!~~~~~~~!!!!!!!!~~!!!!!!!{*#",
"@-]^//////,//,///'////'////^/>-@",
"@(_:<[[}}}}}}}|}}}}|}}}}[}}_1_(@",
"@(<<23345555555566666555555&1_(@",
"@-]7[4;;88888888888888888888/]-@",
"@&)/}9[_88888888888888888888!';@",
"@;//}9[088888888888888888888~/&@",
"@-'/}9[088888888888888888888~);@",
"@&)/}9[088888888888888888888~'2@",
"@;)/}9[088888888888888888888!'&@",
"@a))}9[088888888888888888888!)&@",
"@a)^_9[_88888888888888888888!);@",
"@;))}9[_88888888888888888888!'&@",
"@;)/}9[_88888888888888888888!/;@",
"@;)/|9[|88888888888888888888!)&@",
"@;)/|9[_88888888888888888888!);@",
"@=))|9[_88888888888888888888!);@",
"@b)/|9[_88888888888888888888!);@",
"@;)/|9[|88888888888888888888~)b@",
"@b)'|9[_88888888888888888888~)=@",
"@b)/09[088888888888888888888!';@",
"@=)c}-[088888888888888888888!/&@",
"@;'c}d[088888888888888888888~);@",
"@dee;f-;88888888888888888888{:4@",
"@ghijkjg888888888888888888884(l@",
"mnoppppp88888888888888888888pqnm",
"oo8888888888888888888888888888qq",
"pp8888888888888888888888888888pp"};
