/* XPM */
static char * exit_close_xpm[] = {
"32 32 84 1",
" 	c #677598",
".	c #5B6685",
"+	c #3D3F52",
"@	c #21110D",
"#	c #1F0C03",
"$	c #565B74",
"%	c #4B424B",
"&	c #442E1E",
"*	c #442C1B",
"=	c #442D1E",
"-	c #422D1F",
";	c #402A1C",
">	c #5E463C",
",	c #674931",
"'	c #674831",
")	c #674830",
"!	c #61442E",
"~	c #755338",
"{	c #765338",
"]	c #6A4B33",
"^	c #765439",
"/	c #60432D",
"(	c #6C4C33",
"_	c #382418",
":	c #513725",
"<	c #593E29",
"[	c #513826",
"}	c #4C3424",
"|	c #4A3222",
"1	c #4C3323",
"2	c #4E3425",
"3	c #4C3223",
"4	c #36241A",
"5	c #3A271B",
"6	c #3D291D",
"7	c #3B271C",
"8	c #3A271C",
"9	c #533927",
"0	c #442E20",
"a	c #462F21",
"b	c #493123",
"c	c #3D281B",
"d	c #5E4026",
"e	c #412C1F",
"f	c #503625",
"g	c #654F32",
"h	c #826C42",
"i	c #8D7344",
"j	c #896638",
"k	c #77522B",
"l	c #533920",
"m	c #B8A161",
"n	c #CCAC64",
"o	c #C6964F",
"p	c #AA7737",
"q	c #704D26",
"r	c #4E3424",
"s	c #E4BA68",
"t	c #DEA754",
"u	c #C0873D",
"v	c #7E5629",
"w	c #DC9F4B",
"x	c #7A542D",
"y	c #AB7838",
"z	c #6F4D26",
"A	c #734F27",
"B	c #7E5729",
"C	c #4F361E",
"D	c #513625",
"E	c #462F22",
"F	c #342217",
"G	c #2B1A11",
"H	c #372517",
"I	c #24160D",
"J	c #1D110A",
"K	c #28190F",
"L	c #26180F",
"M	c #1B0D0A",
"N	c #180B08",
"O	c #0C0403",
"P	c #000000",
"Q	c #0D0503",
"R	c #0A0303",
"S	c #509B66",
" .+@#@@@@@@@@@@@@@@@@@@@@@@#@+. ",
".$%&*&==--&&==&;&&==--&&==&*&%$.",
"+%>,'''''''')'''))))'''')''!)>%+",
"@&,~{~~~~~{{{{{{~~~~~~~~{{{{{]&@",
"#*)~~{{{{{{{{{{{~~~~~~{{~~~^{!&#",
"@;/(]]]]]]],]]]]]],]]]]]]]]](/*@",
"@_:<[}|1}}|2||1123322|}3|23[<:_@",
"@_[[-4566744866666684466655;9:_@",
"@;/!|7&||085abbbb||a550b|-c|!de@",
"@&)]}6|}:3--|:1:::}|6cbf}|6}]'a@",
"@a]]}6b2}:|22::2}:}166|::b6},,0@",
"@;']16b::::}:2:::::|a;|f:b61]'a@",
"@&)]26b::::2::2:fff233}:}3;}]'&@",
"@&))26|:2::2:2::ff2::221}a6},'&@",
"@&)]}6|}::::::22:::::::}:36}])a@",
"@a)]}6|::22:2:::22:2:ghijkl}))&@",
"@&!]26b:ffffffff:::32hmnopq}]'&@",
"@&]]r6b}ffffffff:2f3:instuv}''&@",
"@&',r6|:fffffffffff1:jotwuv}''a@",
"@a,]r6|:fffffffffff2:xyuupz2,'&@",
"@&)]}6|}f::f::fffffff<AvBzC},'a@",
"@&)]}6|:f1111fffffffD1;6c74}]'&@",
"@a)]}6b:}3;01:ffffffD1|aE-51)'&@",
"@a))26b::|66bfffffffDD::}|62]'a@",
"@=)]26b}:|6c|:ff::::}::}[|6r],&@",
"@a)]26|::|66|:ff22:111::}|6r,,&@",
"@=)]26b::|66|::f:::2--r::|6r],a@",
"@c<<-Fc&&6FF6&&aa=&;FF6&acF-<<c@",
"@GHHIJIKKIJJIKKKIGKIJJIKKIJLFHG@",
"MNOPPPPPPPPPPPPPPPPPPPPPPPPPPQNM",
"QRSSSSSSSSSSSSSSSSSSSSSSSSSSSSRQ",
"PPSSSSSSSSSSSSSSSSSSSSSSSSSSSSPP"};
