/* XPM */
static char *full1721994523[] = {
/* columns rows colors chars-per-pixel */
"32 32 33 1 ",
"  c #212739",
". c #242A3D",
"X c #262D40",
"o c #282F43",
"O c #2A3146",
"+ c #2D344A",
"@ c #30374D",
"# c #31384F",
"$ c #343D54",
"% c #373F58",
"& c #374057",
"* c #384057",
"= c #374058",
"- c #3A435C",
"; c #3E4761",
": c #3F4963",
"> c #414B66",
", c #444E69",
"< c #46516C",
"1 c #48536F",
"2 c #4B5672",
"3 c #4E5976",
"4 c #4F5B78",
"5 c #525D7B",
"6 c #55617F",
"7 c #566282",
"8 c #596585",
"9 c #5E6A8B",
"0 c #606D8F",
"q c #616F90",
"w c #647294",
"e c #677598",
"r c #687699",
/* pixels */
"...o->:>>-...O-,>,>,,,#X..$::>>:",
"$+..+#+$#+....##,78888,+..O$$+#$",
"4-X#->>>>>;+...*5eew987,o+=:>>:>",
"q1#,9wwwww9>O.#6qwe71184#:8wwqww",
"3,19weeeeee91$7733378121,8weeeer",
">38ee088888e4$52:>>45,:18wew8788",
";8wwq7,,>:182+:>>>>>,>;4wqq81>,>",
"+5921,>>,:>1=+::>>>:::$1q411>>>>",
".-,>:>>>>>;$oX+##@##$#X$,>::,,:,",
">><552:-->4,,>,,,>O..#->,354:--=",
"www0q7>++1qwqqqqq0>.+,9wwwq81$+#",
"ee05377$2qee93347w9,-9wew5358;:8",
"775>>35$5w873:>4777,-w977,;25-1w",
">>>>>:%+48,>>>,77<,#-73>>>>>;+,9",
">>>>>$Oo-,>>>>>,<,>#X$-::>>-OX$1",
"#####o  o%>,>>:>>-$O  +$+$++. o+",
" ...;<<<<>-=;,44551,1,# ..*,<1,,",
"#OO-8wwwq6@.%4wewwqqq9<O.@5ewwww",
"8>-8eew421-+1qweew622382$6weeeee",
"7->er94,:::+3w7775<>>>51*0eee966",
",#-9q72,,,:+2841>>>>>>>=$7009212",
">#@<<781::;+$394>>>>>>>&O>1,,,50",
"+OX#;14,:;#Xo=32>>>>>>$O.+->>>15",
"@O..#%$%=+...o$$>55555:O..+-$*$$",
"<&.O$&$&%$$o XX+2wewqq5;Xo#$%%$$",
"9<O:8999908- .O3qew82284+-599900",
"6<:8weeerre7;$377772:,42;5qerrer",
">18eew09090w4=73::>:,::15wee0099",
":8wwe8<<1<293#:,,,:>>>:4www91<<<",
"$60631>:::>3:+:::>>>>>$3w742>>:>",
".>3>>:>>>>:-+o#%%%%%%$O-3,::>>>>",
"..$:>>>>>>:+ XXXXXXXX...+;,>>>>>"
};
