/* XPM */
static char * monster_1_xpm[] = {
"32 32 10 1",
" 	c #509B66",
".	c #1D235D",
"+	c #4D8AB3",
"@	c #425B9E",
"#	c #65B1B8",
"$	c #FFFFFF",
"%	c #000000",
"&	c #33418A",
"*	c #0C0E19",
"=	c #9E2E46",
"                                ",
"                                ",
"                                ",
"                                ",
"                                ",
"                                ",
"                                ",
"                                ",
"                                ",
"                                ",
"                                ",
"                                ",
"            ........            ",
"           .++++++++.           ",
"          .@+######+@.          ",
"          .+########+.          ",
"         .@##$%##$%##@.         ",
"         .+##%%##%%##+.         ",
"         .+&&######&&+.         ",
"         .+#&&&&&&&&#+.         ",
"        *.@++&====&++@.*        ",
"        *.@@++++++++@@.*        ",
"        **.@@@@@@@@@@.**        ",
"         **************         ",
"                                ",
"                                ",
"                                ",
"                                ",
"                                ",
"                                ",
"                                ",
"                                "};
