/* XPM */
static char * player_death_xpm[] = {
"32 32 16 1",
" 	c #509B66",
".	c #1D235D",
"+	c #4D8AB3",
"@	c #425B9E",
"#	c #65B1B8",
"$	c #000000",
"%	c #573A23",
"&	c #402717",
"*	c #FFFFFF",
"=	c #33418A",
"-	c #0C0E19",
";	c #AC7B5D",
">	c #2C65B5",
",	c #C1AC8F",
"'	c #1D438A",
")	c #9A5C42",
"                                ",
"                                ",
"                                ",
"                                ",
"                                ",
"                                ",
"                                ",
"                                ",
"                                ",
"                                ",
"                                ",
"                                ",
"            ........            ",
"           .++++++++.           ",
"          .@+#$$$$#$$.          ",
"          .+##$%%&$%$$$         ",
"         .@##*$$%%&%&%%$        ",
"         .+##$&%%%%%%%%%$       ",
"         .+=$&%%%%%%%%%%%$      ",
"         .+#$&%%&%%%&&%%%$      ",
"        -.@+$&&&&%%%&;;&%&$     ",
"        -$$$$&%&&%%&;;;;&&$     ",
"        $>%%%&%%;&%;$,,$$&$     ",
"       $&'&%$$&%);&;,,,;$$      ",
"      -$&''$,,$&));;;;;$$-      ",
"      -----$,,$-----------      ",
"       ------------------       ",
"                                ",
"                                ",
"                                ",
"                                ",
"                                "};
